<?xml version="1.0" encoding="UTF-8" standalone="no"?>
<!DOCTYPE svg PUBLIC "-//W3C//DTD SVG 1.1//EN" "http://www.w3.org/Graphics/SVG/1.1/DTD/svg11.dtd">
<svg width="100%" height="100%" viewBox="0 0 2268 1217" version="1.1" xmlns="http://www.w3.org/2000/svg" xmlns:xlink="http://www.w3.org/1999/xlink" xml:space="preserve" xmlns:serif="http://www.serif.com/" style="fill-rule:evenodd;clip-rule:evenodd;stroke-linejoin:round;stroke-miterlimit:2;">
    <g transform="matrix(1.93013,0,0,1.93013,-3489.58,-3551.62)">
        <path d="M1830.74,2323.55C1830.66,2324.15 1830.84,2324.76 1831.24,2325.21C1831.63,2325.66 1832.21,2325.93 1832.81,2325.92L1868.17,2325.83C1870.31,2325.83 1872.51,2325.95 1874.78,2326.19C1876.88,2326.41 1878.75,2326.92 1880.4,2327.72C1881.89,2328.44 1883.06,2329.46 1883.91,2330.79C1884.73,2332.08 1884.89,2333.79 1884.58,2335.9C1884.58,2335.92 1884.57,2335.94 1884.57,2335.96C1884.32,2338.06 1883.71,2339.82 1882.7,2341.21C1881.69,2342.61 1880.46,2343.71 1879.02,2344.52C1877.5,2345.37 1875.85,2345.97 1874.07,2346.32C1872.2,2346.7 1870.29,2346.88 1868.32,2346.88L1829.3,2346.88C1828.26,2346.88 1827.38,2347.64 1827.23,2348.67L1818.66,2409.93C1818.58,2410.53 1818.76,2411.14 1819.16,2411.59C1819.55,2412.05 1820.13,2412.31 1820.73,2412.31L1844.15,2412.31C1845.19,2412.31 1846.07,2411.54 1846.21,2410.51L1851.67,2370.87L1866.97,2370.87C1872.73,2370.87 1878.15,2370.33 1883.24,2369.25C1888.46,2368.14 1893.1,2366.26 1897.16,2363.62C1901.26,2360.96 1904.71,2357.39 1907.48,2352.91C1910.22,2348.49 1912.08,2343.03 1913.03,2336.5C1913.99,2329.77 1913.56,2324.2 1911.86,2319.76C1910.1,2315.22 1907.41,2311.62 1903.8,2308.93C1900.27,2306.31 1895.98,2304.45 1890.9,2303.39C1886.01,2302.36 1880.74,2301.84 1875.08,2301.84L1835.59,2301.84C1834.55,2301.84 1833.67,2302.61 1833.53,2303.64L1830.74,2323.55Z" style="fill:rgb(13,110,253);fill-rule:nonzero;"/>
    </g>
    <g transform="matrix(1.93013,0,0,1.93013,-3465.72,-3551.62)">
        <path d="M1996.72,2356.73C1995.48,2365.54 1995.85,2373.52 1997.82,2380.68C1999.82,2387.91 2003.13,2394.06 2007.74,2399.15C2012.35,2404.23 2018.13,2408.14 2025.1,2410.86C2031.97,2413.55 2039.7,2414.91 2048.28,2414.91C2056.83,2414.91 2064.88,2413.57 2072.45,2410.89C2080.04,2408.2 2086.83,2404.36 2092.82,2399.35C2098.81,2394.33 2103.78,2388.26 2107.71,2381.13C2111.62,2374.01 2114.21,2366.08 2115.45,2357.32C2116.69,2348.5 2116.31,2340.52 2114.34,2333.37C2112.35,2326.14 2109.04,2319.98 2104.43,2314.9C2099.82,2309.82 2094.06,2305.91 2087.15,2303.18C2080.32,2300.5 2072.62,2299.14 2064.03,2299.14C2055.49,2299.14 2047.41,2300.48 2039.79,2303.16C2032.15,2305.84 2025.36,2309.7 2019.41,2314.71C2013.48,2319.72 2008.51,2325.78 2004.54,2332.91C2000.57,2340.03 1997.96,2347.97 1996.72,2356.73ZM2025.14,2357.32C2025.81,2352.65 2027.16,2348.32 2029.21,2344.32C2031.25,2340.35 2033.82,2336.91 2036.95,2334.03C2040.06,2331.15 2043.64,2328.91 2047.7,2327.31C2051.76,2325.7 2056.16,2324.91 2060.88,2324.91C2065.56,2324.91 2069.68,2325.68 2073.23,2327.28C2076.72,2328.84 2079.62,2331.02 2081.92,2333.82C2084.22,2336.63 2085.8,2339.97 2086.68,2343.83C2087.57,2347.8 2087.68,2352.1 2087.02,2356.73L2087.02,2356.74C2086.35,2361.49 2085,2365.84 2082.96,2369.79C2080.92,2373.72 2078.34,2377.13 2075.22,2380.02C2072.11,2382.89 2068.52,2385.13 2064.47,2386.74C2060.4,2388.34 2056.01,2389.14 2051.28,2389.14C2046.61,2389.14 2042.49,2388.36 2038.93,2386.77C2035.45,2385.21 2032.58,2383.04 2030.33,2380.24C2028.07,2377.43 2026.48,2374.1 2025.56,2370.26C2024.61,2366.35 2024.49,2362.03 2025.14,2357.32Z" style="fill:rgb(13,110,253);fill-rule:nonzero;"/>
    </g>
    <g transform="matrix(1.93013,0,0,1.93013,-3455.72,-3551.62)">
        <path d="M2128.08,2301.84C2127.04,2301.84 2126.16,2302.61 2126.02,2303.64L2111.17,2409.84C2111.08,2410.43 2111.26,2411.04 2111.66,2411.49C2112.05,2411.95 2112.63,2412.21 2113.23,2412.21L2135.51,2412.21C2136.53,2412.21 2137.41,2411.46 2137.56,2410.44L2144.42,2366L2188.94,2365.79C2189.98,2365.79 2190.85,2365.03 2191,2364L2193.08,2349.34C2193.16,2348.75 2192.99,2348.14 2192.59,2347.68C2192.19,2347.23 2191.62,2346.97 2191.02,2346.97L2147.48,2346.97L2150.59,2325.85L2199.85,2325.85C2200.89,2325.85 2201.77,2325.08 2201.91,2324.05L2204.6,2304.2C2204.68,2303.61 2204.5,2303.01 2204.1,2302.55C2203.71,2302.1 2203.14,2301.84 2202.53,2301.84L2128.08,2301.84Z" style="fill:rgb(13,110,253);fill-rule:nonzero;"/>
    </g>
    <g transform="matrix(1.93013,0,0,1.93013,-3443.79,-3551.62)">
        <path d="M2209.43,2301.84C2208.39,2301.84 2207.51,2302.61 2207.37,2303.64L2192.52,2409.84C2192.43,2410.43 2192.62,2411.04 2193.01,2411.49C2193.41,2411.95 2193.98,2412.21 2194.58,2412.21L2217.98,2412.21C2219.02,2412.21 2219.9,2411.44 2220.05,2410.41L2234.89,2304.21C2234.98,2303.62 2234.8,2303.01 2234.4,2302.56C2234.01,2302.1 2233.43,2301.84 2232.83,2301.84L2209.43,2301.84Z" style="fill:rgb(13,110,253);fill-rule:nonzero;"/>
    </g>
    <g transform="matrix(1.93013,0,0,1.93013,-3479.58,-3551.62)">
        <path d="M1971.21,2368.89C1975.89,2367.76 1980.09,2365.98 1983.81,2363.57C1987.91,2360.91 1991.35,2357.34 1994.12,2352.87C1996.86,2348.45 1998.72,2342.99 1999.66,2336.47C2000.62,2329.75 2000.2,2324.18 1998.49,2319.75C1996.74,2315.21 1994.05,2311.61 1990.44,2308.93C1986.92,2306.31 1982.63,2304.45 1977.55,2303.39C1972.67,2302.36 1967.4,2301.84 1961.75,2301.84L1922.3,2301.84C1921.26,2301.84 1920.38,2302.61 1920.24,2303.64L1917.45,2323.53C1917.37,2324.13 1917.55,2324.74 1917.95,2325.19C1918.34,2325.65 1918.92,2325.91 1919.52,2325.91L1954.85,2325.81C1956.98,2325.81 1959.18,2325.93 1961.45,2326.17C1963.55,2326.39 1965.42,2326.9 1967.06,2327.7C1968.55,2328.42 1969.72,2329.44 1970.57,2330.77C1971.39,2332.05 1971.55,2333.76 1971.24,2335.87C1971.24,2335.89 1971.23,2335.91 1971.23,2335.93C1970.98,2338.03 1970.37,2339.78 1969.37,2341.17C1968.35,2342.57 1967.12,2343.68 1965.68,2344.48C1964.17,2345.33 1962.52,2345.93 1960.74,2346.28C1958.87,2346.65 1956.96,2346.84 1955,2346.84L1916.01,2346.84C1914.97,2346.84 1914.09,2347.6 1913.94,2348.63L1905.39,2409.84C1905.3,2410.43 1905.48,2411.04 1905.88,2411.49C1906.27,2411.95 1906.85,2412.21 1907.45,2412.21L1930.85,2412.21C1931.89,2412.21 1932.77,2411.44 1932.91,2410.41L1938.37,2370.81L1943.34,2370.81L1958.78,2410.87C1959.09,2411.68 1959.86,2412.21 1960.72,2412.21L1988.77,2412.21C1989.49,2412.21 1990.15,2411.84 1990.53,2411.23C1990.91,2410.62 1990.96,2409.87 1990.65,2409.22L1971.21,2368.89Z" style="fill:rgb(13,110,253);fill-rule:nonzero;"/>
    </g>
    <g transform="matrix(1.93013,0,0,1.93013,-3391.79,-3551.62)">
        <path d="M2136.19,1965.37C2136.03,1966.57 2136.39,1967.78 2137.18,1968.69C2137.97,1969.6 2139.12,1970.12 2140.33,1970.12L2247.57,1969.82C2254.1,1969.82 2260.86,1970.19 2267.84,1970.93C2274.45,1971.64 2280.37,1973.24 2285.58,1975.77C2290.47,1978.15 2294.31,1981.51 2297.09,1985.87C2299.81,1990.15 2300.48,1995.82 2299.44,2002.83C2299.43,2002.87 2299.43,2002.9 2299.42,2002.94C2298.61,2009.74 2296.62,2015.4 2293.36,2019.88C2290.09,2024.39 2286.14,2027.94 2281.49,2030.53C2276.71,2033.21 2271.5,2035.1 2265.87,2036.23C2260.06,2037.39 2254.11,2037.97 2248.02,2037.97L2129.67,2037.96C2127.59,2037.96 2125.83,2039.49 2125.54,2041.55L2099.57,2227.31C2099.4,2228.51 2099.76,2229.72 2100.55,2230.63C2101.34,2231.54 2102.49,2232.06 2103.69,2232.06L2174.72,2232.06C2176.8,2232.06 2178.56,2230.52 2178.84,2228.46L2195.65,2106.4L2243.92,2106.4C2261.22,2106.4 2277.52,2104.77 2292.82,2101.53C2308.37,2098.23 2322.19,2092.64 2334.28,2084.79C2346.47,2076.87 2356.69,2066.28 2364.92,2052.98C2373.08,2039.8 2378.61,2023.5 2381.44,2004.04L2381.44,2004.03C2384.29,1984.07 2383.09,1967.51 2378.02,1954.36C2372.86,1940.99 2364.94,1930.37 2354.3,1922.47C2343.84,1914.7 2331.09,1909.2 2316.03,1906.03C2301.35,1902.94 2285.5,1901.39 2268.5,1901.39L2148.76,1901.39C2146.69,1901.39 2144.93,1902.92 2144.64,1904.98L2136.19,1965.37Z" style="fill:rgb(13,110,253);"/>
    </g>
</svg>
