<?xml version="1.0" encoding="UTF-8" standalone="no"?>
<!DOCTYPE svg PUBLIC "-//W3C//DTD SVG 1.1//EN" "http://www.w3.org/Graphics/SVG/1.1/DTD/svg11.dtd">
<svg width="100%" height="100%" viewBox="0 0 945 709" version="1.1" xmlns="http://www.w3.org/2000/svg" xmlns:xlink="http://www.w3.org/1999/xlink" xml:space="preserve" xmlns:serif="http://www.serif.com/" style="fill-rule:evenodd;clip-rule:evenodd;stroke-linejoin:round;stroke-miterlimit:2;">
    <g transform="matrix(1,0,0,1,-635.54,-83.082)">
        <g transform="matrix(1,0,0,1,-26,-3)">
            <path d="M1403.88,507.06C1432.9,500.633 1458.76,490.023 1481.46,475.277C1504.99,460.002 1524.71,439.553 1540.6,413.89C1556.35,388.449 1567.03,356.977 1572.48,319.422C1572.48,319.416 1572.48,319.41 1572.48,319.404C1577.98,280.872 1575.66,248.928 1565.87,223.545C1555.92,197.726 1540.63,177.226 1520.1,161.984C1499.91,146.99 1475.3,136.375 1446.23,130.255C1417.89,124.289 1387.31,121.295 1354.5,121.295C1354.5,121.295 1162.3,121.295 1162.3,121.295C1158.51,121.295 1155.23,123.943 1154.43,127.651C1153.64,131.358 1155.54,135.117 1159,136.672C1170.78,141.966 1181.56,148.26 1191.34,155.527C1213.07,171.659 1229.29,193.327 1239.82,220.652C1242.94,228.754 1245.36,237.507 1247.03,246.908C1247.72,250.753 1251.07,253.549 1254.97,253.538L1314.09,253.374C1326.7,253.374 1339.74,254.092 1353.21,255.525C1365.98,256.884 1377.4,259.975 1387.45,264.866C1396.89,269.458 1404.31,275.94 1409.66,284.359C1414.92,292.623 1416.21,303.566 1414.21,317.089C1414.2,317.162 1414.19,317.235 1414.18,317.309C1412.6,330.425 1408.77,341.348 1402.48,350.005C1396.15,358.697 1388.53,365.558 1379.57,370.562C1370.33,375.725 1360.28,379.385 1349.41,381.559C1338.2,383.8 1326.72,384.918 1314.95,384.918C1314.95,384.918 1235.8,384.909 1235.8,384.909C1232.57,384.909 1229.64,386.85 1228.39,389.834C1224.13,399.958 1219.29,409.385 1213.88,418.123C1197.34,444.844 1176.78,466.117 1152.29,482.022C1128.15,497.699 1100.58,508.878 1069.54,515.462C1068.56,515.669 1067.58,515.873 1066.6,516.074C1063.26,516.755 1060.72,519.466 1060.24,522.84L1028.43,750.375C1028.11,752.679 1028.8,755.011 1030.33,756.767C1031.85,758.522 1034.07,759.531 1036.39,759.531L1173.48,759.531C1177.5,759.531 1180.9,756.565 1181.44,752.585L1213.88,516.997C1213.88,516.997 1249.53,516.997 1249.53,516.997C1249.53,516.997 1340.96,754.379 1340.96,754.379C1342.16,757.483 1345.14,759.531 1348.47,759.531L1512.79,759.531C1515.56,759.531 1518.13,758.109 1519.6,755.766C1521.07,753.423 1521.24,750.488 1520.04,747.996L1403.88,507.06Z" style="fill:rgb(25,135,84);"/>
        </g>
        <g transform="matrix(1.93013,0,0,1.93013,-3385.79,-3551.62)">
            <path d="M2136.19,1965.37C2136.03,1966.57 2136.39,1967.78 2137.18,1968.69C2137.97,1969.6 2139.12,1970.12 2140.33,1970.12L2247.57,1969.82C2254.1,1969.82 2260.86,1970.19 2267.84,1970.93C2274.45,1971.64 2280.37,1973.24 2285.58,1975.77C2290.47,1978.15 2294.31,1981.51 2297.09,1985.87C2299.81,1990.15 2300.48,1995.82 2299.44,2002.83C2299.43,2002.87 2299.43,2002.9 2299.42,2002.94C2298.61,2009.74 2296.62,2015.4 2293.36,2019.88C2290.09,2024.39 2286.14,2027.94 2281.49,2030.53C2276.71,2033.21 2271.5,2035.1 2265.87,2036.23C2260.06,2037.39 2254.11,2037.97 2248.02,2037.97C2248.02,2037.97 2129.67,2037.96 2129.67,2037.96C2127.59,2037.96 2125.83,2039.49 2125.54,2041.55L2099.57,2227.31C2099.4,2228.51 2099.76,2229.72 2100.55,2230.63C2101.34,2231.54 2102.49,2232.06 2103.69,2232.06L2174.72,2232.06C2176.8,2232.06 2178.56,2230.52 2178.84,2228.46L2195.65,2106.4C2195.65,2106.4 2243.92,2106.4 2243.92,2106.4C2261.22,2106.4 2277.52,2104.77 2292.82,2101.53C2308.37,2098.23 2322.19,2092.64 2334.28,2084.79C2346.47,2076.87 2356.69,2066.28 2364.92,2052.98C2373.08,2039.8 2378.61,2023.5 2381.44,2004.04C2381.44,2004.04 2381.44,2004.03 2381.44,2004.03C2384.29,1984.07 2383.09,1967.51 2378.02,1954.36C2372.86,1940.99 2364.94,1930.37 2354.3,1922.47C2343.84,1914.7 2331.09,1909.2 2316.03,1906.03C2301.35,1902.94 2285.5,1901.39 2268.5,1901.39C2268.5,1901.39 2148.76,1901.39 2148.76,1901.39C2146.69,1901.39 2144.93,1902.92 2144.64,1904.98L2136.19,1965.37Z" style="fill:rgb(13,110,253);"/>
        </g>
    </g>
</svg>
